HIERARCHY
ROOT Root
{
  OFFSET 6.90105 11.8871 -0.957331
  CHANNELS 6 Xposition Yposition Zposition Zrotation Xrotation Yrotation
  JOINT Spine
  {
    OFFSET 5.3114 0 0
    CHANNELS 3 Zrotation Xrotation Yrotation
    JOINT Spine1
    {
      OFFSET 2.79004 0 0
      CHANNELS 3 Zrotation Xrotation Yrotation
      JOINT Neck
      {
        OFFSET 1.43377 0 0
        CHANNELS 3 Zrotation Xrotation Yrotation
        JOINT Head
        {
          OFFSET 1.86043 0 0
          CHANNELS 3 Zrotation Xrotation Yrotation
          End Site
          {
            OFFSET 0 0 0
          }
        }
      }
      JOINT LeftArm
      {
        OFFSET 0.0387506 0 2.55754
        CHANNELS 3 Zrotation Xrotation Yrotation
        JOINT LeftForeArm
        {
          OFFSET 4.24845 0 0
          CHANNELS 3 Zrotation Xrotation Yrotation
          JOINT LeftHand
          {
            OFFSET 4.01008 0 0
            CHANNELS 3 Zrotation Xrotation Yrotation
            End Site
            {
              OFFSET 0 0 0
            }
          }
        }
      }
      JOINT RightArm
      {
        OFFSET 0.0387506 0 -2.55754
        CHANNELS 3 Zrotation Xrotation Yrotation
        JOINT RightForeArm
        {
          OFFSET -4.24845 0 0
          CHANNELS 3 Zrotation Xrotation Yrotation
          JOINT RightHand
          {
            OFFSET -4.01009 0 0
            CHANNELS 3 Zrotation Xrotation Yrotation
            End Site
            {
              OFFSET 0 0 0
            }
          }
        }
      }
    }
  }
  JOINT LeftUpLeg
  {
    OFFSET -1.23318 0 2.05692
    CHANNELS 3 Zrotation Xrotation Yrotation
    JOINT LeftLeg
    {
      OFFSET 5.46397 0 0
      CHANNELS 3 Zrotation Xrotation Yrotation
      JOINT LeftFoot
      {
        OFFSET 4.68898 0 0
        CHANNELS 3 Zrotation Xrotation Yrotation
        End Site
        {
          OFFSET 0 0 0
        }
      }
    }
  }
  JOINT RightUpLeg
  {
    OFFSET -1.24454 0 -2.05007
    CHANNELS 3 Zrotation Xrotation Yrotation
    JOINT RightLeg
    {
      OFFSET -5.46397 0 0
      CHANNELS 3 Zrotation Xrotation Yrotation
      JOINT RightFoot
      {
        OFFSET -4.68901 0 0
        CHANNELS 3 Zrotation Xrotation Yrotation
        End Site
        {
          OFFSET 0 0 0
        }
      }
    }
  }
}
MOTION
Frames:	1
Frame Time:	0.00833333
6.90105 11.8871 -0.957331 -0 90 90 9.69808e-018 1.34041e-020 0.158382 1.41245e-030 7.06225e-031 2.48481e-017 -7.30747e-017 7.61111e-019 -1.19349 3.40995e-017 1.65719e-019 0.556895 -2.12238e-008 -1.53545e-005 -90.1584 -2.50273e-005 -2.47192e-012 6.55612e-006 1.52588e-005 -6.98387e-015 174.455 180 -4.60993e-005 -89.8417 -5.49628e-005 -2.25992e-011 3.612e-005 1.52588e-005 6.98387e-015 174.455 -3.94791 -0.248796 -175.995 -8.56334 0.17593 -0.870008 4.60942 -0.0775208 176.868 177.984 -0.125371 -176.036 -4.37326 0.0836638 -0.877309 2.35438 -0.0332512 176.598 
